<svg xmlns="http://www.w3.org/2000/svg" xmlns:xlink="http://www.w3.org/1999/xlink" version="1.1" id="Layer_1" x="0px" y="0px" viewBox="0 0 48 24" style="enable-background:new 0 0 48 24;" xml:space="preserve">
<style type="text/css">
	.st0{fill:#2C70B8;}
</style>
<g>
	<g>
		<g>
			<path class="st0" d="M44.77,21.34l-1.73-1.82l-1.73,1.82h-3.35l0,0h-7.18v-8.53h-3.45l4.21-9.68h4.12l1.63,3.26V3.04h5.08     l0.86,2.5l0.86-2.5h3.93V1.6c0-0.86-0.77-1.54-1.54-1.54h-34.3c-0.96-0.1-1.63,0.67-1.63,1.54v20.8c0,0.86,0.77,1.54,1.54,1.54     h34.32c0.86,0,1.54-0.77,1.54-1.54v-1.05C47.94,21.34,44.77,21.34,44.77,21.34z"/>
			<g>
				<polygon class="st0" points="45.35,20.39 48.03,20.39 44.48,16.56 48.03,12.82 45.35,12.82 43.15,15.21 40.94,12.82       38.26,12.82 41.9,16.56 38.26,20.39 40.94,20.39 43.15,17.99     "/>
				<polygon class="st0" points="33.94,18.66 33.94,17.52 38.26,17.52 38.26,15.79 33.94,15.79 33.94,14.55 38.26,14.55       38.26,12.82 31.93,12.82 31.93,20.39 38.26,20.39 38.26,18.66     "/>
				<polygon class="st0" points="46.02,11.76 47.94,11.76 47.94,4.19 44.87,4.19 43.15,8.89 41.51,4.19 38.26,4.19 38.26,11.76       40.36,11.76 40.36,6.49 42.28,11.76 44.11,11.76 46.02,6.49     "/>
				<path class="st0" d="M35,4.19h-2.59l-3.26,7.48h2.3l0.58-1.54h3.35l0.58,1.54h2.3L35,4.19z M32.6,8.6l1.05-2.5l1.05,2.5H32.6z"/>
			</g>
		</g>
		<polygon class="st0" points="46.12,16.36 48.03,18.47 48.03,14.35   "/>
	</g>
	<g>
		<g>
			<path class="st0" d="M24.87,21.34l-1.26-1.82l-1.26,1.82h-2.44l0,0h-5.23v-8.53h-2.51l3.07-9.68h3l1.18,3.26V3.04h3.7l0.63,2.5     l0.63-2.5h2.86V1.6c0-0.86-0.56-1.54-1.12-1.54H1.15c-0.7-0.1-1.18,0.67-1.18,1.54v20.8c0,0.86,0.56,1.54,1.12,1.54h24.97     c0.63,0,1.12-0.77,1.12-1.54v-1.05C27.17,21.34,24.87,21.34,24.87,21.34z"/>
			<g>
				<polygon class="st0" points="25.28,20.39 27.23,20.39 24.65,16.56 27.23,12.82 25.28,12.82 23.68,15.21 22.07,12.82       20.12,12.82 22.77,16.56 20.12,20.39 22.07,20.39 23.68,17.99     "/>
				<polygon class="st0" points="16.99,18.66 16.99,17.52 20.12,17.52 20.12,15.79 16.99,15.79 16.99,14.55 20.12,14.55       20.12,12.82 15.52,12.82 15.52,20.39 20.12,20.39 20.12,18.66     "/>
				<polygon class="st0" points="25.77,11.76 27.17,11.76 27.17,4.19 24.93,4.19 23.68,8.89 22.49,4.19 20.12,4.19 20.12,11.76       21.65,11.76 21.65,6.49 23.05,11.76 24.38,11.76 25.77,6.49     "/>
				<path class="st0" d="M17.75,4.19h-1.88l-2.37,7.48h1.68l0.42-1.54h2.44l0.42,1.54h1.68L17.75,4.19z M16.01,8.6l0.76-2.5      l0.76,2.5H16.01z"/>
			</g>
		</g>
		<polygon class="st0" points="25.84,16.36 27.23,18.47 27.23,14.35   "/>
	</g>
</g>
</svg>