<svg
                                            xmlns="http://www.w3.org/2000/svg"
                                            width="25"
                                            height="24"
                                            fill="none"
                                            viewBox="0 0 25 24"
                                        >
                                            <path
                                            fill="#fff"
                                            fillOpacity="0.7"
                                            d="M12.822 2.946a9 9 0 1 0 0 18 9 9 0 0 0 0-18m4.127 12.98a.56.56 0 0 1-.772.187c-2.113-1.291-4.773-1.583-7.906-.868a.561.561 0 0 1-.25-1.094c3.429-.783 6.37-.446 8.742 1.004a.56.56 0 0 1 .186.772m1.102-2.45a.7.7 0 0 1-.965.231c-2.42-1.487-6.107-1.918-8.969-1.049a.703.703 0 0 1-.408-1.343c3.269-.991 7.333-.511 10.11 1.196.33.203.435.635.232.965m.094-2.552C15.245 9.2 10.46 9.043 7.69 9.884a.842.842 0 1 1-.488-1.612c3.179-.965 8.464-.779 11.803 1.204a.84.84 0 1 1-.858 1.448"
                                            ></path>
                                        </svg>