<svg
                                            xmlns="http://www.w3.org/2000/svg"
                                            width="25"
                                            height="24"
                                            fill="none"
                                            viewBox="0 0 25 24"
                                        >
                                            <path
                                            fill="#fff"
                                            fillOpacity="0.7"
                                            d="M21.304 6.726a7.2 7.2 0 0 1-1.663 1.6v.495a10.97 10.97 0 0 1-3.258 7.822 10.96 10.96 0 0 1-7.857 3.165 11 11 0 0 1-4.898-1.132.23.23 0 0 1-.135-.207v-.099c0-.13.105-.234.234-.234a7.96 7.96 0 0 0 4.6-1.654 3.93 3.93 0 0 1-3.495-2.302.234.234 0 0 1 .234-.323c.459.046.923.003 1.366-.126a3.92 3.92 0 0 1-3.1-3.426.234.234 0 0 1 .323-.233c.447.197.93.301 1.42.305a3.85 3.85 0 0 1-1.537-4.441.485.485 0 0 1 .817-.162 11.1 11.1 0 0 0 7.558 3.488 3.6 3.6 0 0 1-.108-.9 3.92 3.92 0 0 1 6.749-2.643 7.8 7.8 0 0 0 2.148-.746c.05-.031.112-.031.161 0 .031.05.031.112 0 .162a3.93 3.93 0 0 1-1.581 1.798 7.7 7.7 0 0 0 1.797-.432.14.14 0 0 1 .162 0 .153.153 0 0 1 .063.225"
                                            ></path>
                                        </svg>