<svg width="24" height="24" viewBox="0 0 24 24" fill="none" xmlns="http://www.w3.org/2000/svg" color="black" data-sentry-element="svg" data-sentry-source-file="NavHeatingPatch.tsx" data-sentry-component="SvgHeatingPatch"><path d="M20.6388 8.23852C19.2476 7.59071 15.3447 7 11.9381 7C8.53158 7 4.62863 7.59071 3.23747 8.23852C2.38366 8.63688 1.90339 9.44477 2.01632 10.2961C2.13173 11.1723 2.83042 11.8275 3.83935 12.0037C6.0049 12.3822 8.7227 14.4857 9.63235 15.476C10.0518 15.9327 10.9776 16.609 11.9406 16.609C12.9036 16.609 13.8245 15.934 14.2439 15.476C15.1523 14.4857 17.8714 12.3822 20.0369 12.0037C21.0458 11.8275 21.7445 11.1735 21.8599 10.2961C21.9729 9.44353 21.4926 8.63564 20.6388 8.23852Z" stroke="black" stroke-width="1" stroke-miterlimit="10" data-sentry-element="path" data-sentry-source-file="NavHeatingPatch.tsx"></path><path d="M10.9375 9.14438V13.0536C10.9375 13.3218 10.4245 13.971 9.65492 13.2794C8.88537 12.5879 6.71353 11.219 4.95212 10.9649C3.71609 10.787 3.61823 9.70889 4.6101 9.32785C5.60196 8.9468 9.29485 8.53283 10.2193 8.59398C10.852 8.63632 10.9375 8.96091 10.9375 9.14438Z" stroke="black" stroke-width="1" stroke-miterlimit="10" data-sentry-element="path" data-sentry-source-file="NavHeatingPatch.tsx"></path><path d="M12.9375 9.14438V13.0536C12.9375 13.3218 13.4505 13.971 14.2201 13.2794C14.9896 12.5879 17.1615 11.219 18.9229 10.9649C20.1589 10.787 20.2568 9.70889 19.2649 9.32785C18.273 8.9468 14.5801 8.53283 13.6557 8.59398C13.023 8.63632 12.9375 8.96091 12.9375 9.14438Z" stroke="black" stroke-width="1" stroke-miterlimit="10" data-sentry-element="path" data-sentry-source-file="NavHeatingPatch.tsx"></path></svg>