<svg width="50" height="84" viewBox="0 0 50 84" fill="#ffffff" xmlns="http://www.w3.org/2000/svg" data-sentry-element="svg" data-sentry-source-file="BCorpLogo.tsx" data-sentry-component="SvgBCorpLogo"><path d="M14.5986 24.2178H24.9295C27.4424 24.2178 30.7567 24.2178 32.4682 25.2535C34.3451 26.3665 35.8187 28.3915 35.8187 31.1792C35.8187 34.1987 34.2262 36.4659 31.5892 37.5377V37.6202C35.1 38.3364 37.0131 40.9592 37.0131 44.4579C37.0131 48.6316 34.0193 52.6096 28.3575 52.6096H14.5986V24.2178ZM18.3887 36.4196H25.9739C30.281 36.4196 32.039 34.8686 32.039 31.8851C32.039 27.9484 29.2469 27.3919 25.9739 27.3919H18.3887V36.4196ZM18.3887 49.42H27.887C31.1548 49.42 33.2334 47.431 33.2334 44.3342C33.2334 40.6345 30.2396 39.604 27.0494 39.604H18.3887V49.42Z" fill="#ffffff" data-sentry-element="path" data-sentry-source-file="BCorpLogo.tsx"></path><path d="M46.7058 38.4196C46.7058 50.3432 37.0058 60.0098 25.0359 60.0098C13.0712 60.0098 3.37121 50.3432 3.37121 38.4196C3.37121 26.4961 13.0712 16.8295 25.0359 16.8295C37.0058 16.8346 46.7058 26.5012 46.7058 38.4196ZM25.0411 13.542C11.2615 13.542 0.0878906 24.6772 0.0878906 38.4093C0.0878906 52.1415 11.2615 63.2766 25.0411 63.2766C38.8259 63.2766 49.9995 52.1415 49.9995 38.4093C49.9995 24.6772 38.8259 13.542 25.0411 13.542Z" fill="#ffffff" data-sentry-element="path" data-sentry-source-file="BCorpLogo.tsx"></path><path d="M49.943 68.5269H0.134766V71.7886H49.943V68.5269Z" fill="#ffffff" data-sentry-element="path" data-sentry-source-file="BCorpLogo.tsx"></path><path d="M48.3886 64.9349C48.4506 64.9349 48.5075 64.9297 48.5644 64.9297C48.6161 64.9246 48.6678 64.9143 48.7091 64.8988C48.7557 64.8782 48.7867 64.8473 48.8126 64.8112C48.8384 64.77 48.8487 64.7185 48.8487 64.6515C48.8487 64.5948 48.8384 64.5433 48.8177 64.5124C48.797 64.4763 48.766 64.4505 48.7298 64.4351C48.6936 64.4145 48.6574 64.4042 48.6057 64.3939C48.5592 64.3887 48.5178 64.3887 48.4661 64.3887H48.1094V64.9401H48.3886V64.9349ZM48.5075 64.162C48.7143 64.162 48.8643 64.2032 48.9677 64.2856C49.0659 64.3681 49.1176 64.4918 49.1176 64.6618C49.1176 64.8215 49.0711 64.9298 48.9883 65.007C48.9004 65.0792 48.7919 65.1204 48.6574 65.1359L49.1538 65.8985H48.8643L48.3886 65.1513H48.1042V65.8985H47.8301V64.1671H48.5075V64.162ZM47.2872 65.5275C47.3441 65.6821 47.432 65.8212 47.5458 65.9345C47.6543 66.0479 47.7836 66.1355 47.9335 66.2025C48.0783 66.2643 48.2438 66.2952 48.4144 66.2952C48.5902 66.2952 48.7505 66.2643 48.8953 66.2025C49.0452 66.1355 49.1745 66.0479 49.2831 65.9345C49.3917 65.8212 49.4796 65.6872 49.5364 65.5275C49.5985 65.3729 49.6347 65.208 49.6347 65.0277C49.6347 64.8473 49.6036 64.6824 49.5364 64.5278C49.4744 64.3732 49.3865 64.2393 49.2831 64.1259C49.1693 64.0126 49.0401 63.925 48.8953 63.8631C48.7505 63.8013 48.585 63.7652 48.4144 63.7652C48.2438 63.7652 48.0783 63.8013 47.9335 63.8631C47.7836 63.9301 47.6492 64.0177 47.5458 64.1259C47.432 64.2393 47.3493 64.3732 47.2872 64.5278C47.2252 64.6824 47.1942 64.8422 47.1942 65.0277C47.189 65.2028 47.22 65.3729 47.2872 65.5275ZM47.039 64.4402C47.1166 64.2599 47.2252 64.1105 47.3596 63.9765C47.4941 63.8425 47.6543 63.7446 47.8353 63.6673C48.0163 63.59 48.2128 63.554 48.4092 63.554C48.6161 63.554 48.8074 63.59 48.9935 63.6673C49.1693 63.7446 49.3296 63.8425 49.4589 63.9765C49.5933 64.1105 49.7071 64.265 49.7794 64.4402C49.8622 64.6206 49.8984 64.8164 49.8984 65.0277C49.8984 65.2389 49.8622 65.4347 49.7794 65.6151C49.7019 65.8006 49.5933 65.9552 49.4589 66.0891C49.3244 66.2282 49.1693 66.3262 48.9935 66.4034C48.8074 66.4756 48.6161 66.5117 48.4092 66.5117C48.2076 66.5117 48.0163 66.4756 47.8353 66.4034C47.6543 66.3262 47.4941 66.2282 47.3596 66.0891C47.2252 65.9552 47.1166 65.8006 47.039 65.6151C46.9563 65.4347 46.9253 65.2389 46.9253 65.0277C46.9201 64.8164 46.9563 64.6206 47.039 64.4402Z" fill="#ffffff" data-sentry-element="path" data-sentry-source-file="BCorpLogo.tsx"></path><path d="M6.17631 2.60731C6.05739 2.41665 5.91261 2.25177 5.73681 2.11264C5.56102 1.96836 5.35936 1.86015 5.13703 1.77771C4.91469 1.70042 4.68202 1.6592 4.439 1.6592C3.99433 1.6592 3.61688 1.74679 3.30147 1.91683C2.99124 2.08688 2.73788 2.31875 2.54657 2.60731C2.35526 2.89586 2.21048 3.22564 2.12258 3.59664C2.03468 3.96764 1.98814 4.34895 1.98814 4.74056C1.98814 5.11671 2.02951 5.48256 2.12258 5.8381C2.21048 6.19364 2.35009 6.51311 2.54657 6.80167C2.73788 7.08507 2.99124 7.31695 3.30147 7.48699C3.61171 7.65703 3.98916 7.74463 4.439 7.74463C5.04396 7.74463 5.51965 7.55913 5.85574 7.19328C6.197 6.82228 6.40382 6.33792 6.48138 5.73504H8.39966C8.34796 6.2967 8.21869 6.80167 8.0067 7.25512C7.79471 7.70856 7.52066 8.09502 7.17424 8.40934C6.82781 8.72881 6.4245 8.97099 5.96432 9.14103C5.50414 9.30592 4.99225 9.39352 4.439 9.39352C3.75131 9.39352 3.13084 9.27501 2.57759 9.03283C2.02434 8.7958 1.56416 8.46602 1.18153 8.04349C0.804082 7.62612 0.514529 7.13145 0.312877 6.56464C0.111224 5.99784 0.0078125 5.38981 0.0078125 4.73541C0.0078125 4.06554 0.106054 3.44206 0.312877 2.8701C0.514529 2.29814 0.804082 1.79317 1.18153 1.37064C1.55899 0.942959 2.02434 0.608028 2.57759 0.365847C3.12567 0.123666 3.74614 0 4.439 0C4.93538 0 5.4059 0.0721389 5.8454 0.211264C6.2849 0.355542 6.68303 0.561654 7.02946 0.834751C7.37589 1.10785 7.66544 1.44278 7.89295 1.8447C8.12045 2.24661 8.26523 2.71036 8.32211 3.22564H6.40382C6.36762 2.99892 6.29524 2.79281 6.17631 2.60731Z" fill="#ffffff" data-sentry-element="path" data-sentry-source-file="BCorpLogo.tsx"></path><path d="M10.9808 7.62567C11.2496 7.88331 11.6374 8.01728 12.139 8.01728C12.5009 8.01728 12.8111 7.92968 13.0748 7.74933C13.3334 7.56899 13.4937 7.37833 13.5557 7.17738H15.1327C14.8794 7.95545 14.4916 8.5171 13.9694 8.85203C13.4471 9.18696 12.8163 9.357 12.0769 9.357C11.565 9.357 11.0997 9.27456 10.6912 9.10967C10.2776 8.94478 9.93113 8.7129 9.64158 8.41404C9.3572 8.11518 9.13486 7.75449 8.97975 7.33196C8.82463 6.91459 8.74707 6.45083 8.74707 5.95101C8.74707 5.46665 8.82463 5.01321 8.98492 4.59583C9.1452 4.17846 9.37271 3.81261 9.66743 3.5086C9.96216 3.20458 10.3138 2.9624 10.7222 2.78721C11.1307 2.61201 11.5805 2.52441 12.0769 2.52441C12.6302 2.52441 13.1162 2.63262 13.5299 2.84389C13.9435 3.0603 14.2796 3.34371 14.5433 3.7044C14.807 4.0651 14.9983 4.47732 15.1172 4.93592C15.2361 5.39451 15.2775 5.87888 15.2413 6.38385H10.5361C10.5619 6.9455 10.7067 7.36803 10.9808 7.62567ZM13.0025 4.20937C12.7853 3.9775 12.4595 3.85898 12.0252 3.85898C11.7408 3.85898 11.503 3.90536 11.3117 4.00326C11.1204 4.10117 10.9704 4.21968 10.8567 4.3588C10.7429 4.50308 10.6654 4.65251 10.6188 4.81225C10.5723 4.97199 10.5464 5.11111 10.5361 5.23993H13.4523C13.3696 4.78649 13.2196 4.44125 13.0025 4.20937Z" fill="#ffffff" data-sentry-element="path" data-sentry-source-file="BCorpLogo.tsx"></path><path d="M17.7526 2.68447V3.89022H17.7784C17.8612 3.68926 17.9749 3.50376 18.1197 3.32857C18.2645 3.15853 18.4248 3.0091 18.6109 2.89058C18.797 2.77207 18.9935 2.67417 19.2055 2.60718C19.4175 2.54019 19.6347 2.50928 19.8622 2.50928C19.9811 2.50928 20.1104 2.52989 20.2552 2.57111V4.23031C20.1724 4.21485 20.069 4.19939 19.9501 4.18908C19.8312 4.17878 19.7174 4.16847 19.6088 4.16847C19.2831 4.16847 19.0039 4.22515 18.7764 4.33336C18.5489 4.44157 18.3679 4.591 18.2283 4.78165C18.0887 4.97231 17.9904 5.18872 17.9336 5.44121C17.8767 5.69369 17.8457 5.96679 17.8457 6.2605V9.19243H16.0566V2.68447H17.7526Z" fill="#ffffff" data-sentry-element="path" data-sentry-source-file="BCorpLogo.tsx"></path><path d="M25.0423 2.68576V3.88121H23.7289V7.1017C23.7289 7.40571 23.7806 7.60667 23.8789 7.70457C23.9771 7.80247 24.1839 7.854 24.4838 7.854C24.5872 7.854 24.6803 7.84885 24.7734 7.8437C24.8665 7.83339 24.9544 7.82308 25.0371 7.80763V9.18857C24.8871 9.21434 24.7165 9.22979 24.5304 9.2401C24.3442 9.2504 24.1633 9.25556 23.9875 9.25556C23.7083 9.25556 23.4446 9.23495 23.2015 9.19888C22.9533 9.16281 22.7362 9.09067 22.5449 8.97731C22.3536 8.8691 22.2088 8.71452 22.095 8.51356C21.9864 8.3126 21.9296 8.04981 21.9296 7.72003V3.88636H20.8438V2.69091H21.9296V0.743164H23.7186V2.69091H25.0423V2.68576Z" fill="#ffffff" data-sentry-element="path" data-sentry-source-file="BCorpLogo.tsx"></path><path d="M26.0889 1.68024V0.206543H27.8779V1.68024H26.0889ZM27.8779 2.68503V9.18269H26.0889V2.68503H27.8779Z" fill="#ffffff" data-sentry-element="path" data-sentry-source-file="BCorpLogo.tsx"></path><path d="M28.5918 3.88048V2.68503H29.6621V2.18006C29.6621 1.60295 29.8431 1.12889 30.205 0.75789C30.567 0.38689 31.115 0.206543 31.8441 0.206543C32.0044 0.206543 32.1647 0.211696 32.325 0.227155C32.4852 0.23746 32.6404 0.252918 32.7903 0.258071V1.59264C32.5783 1.56688 32.3611 1.55657 32.1336 1.55657C31.8906 1.55657 31.7148 1.61325 31.6114 1.72661C31.508 1.83997 31.4563 2.03063 31.4563 2.29857V2.69018H32.6921V3.88563H31.4563V9.19299H29.6621V3.88563H28.5918V3.88048Z" fill="#ffffff" data-sentry-element="path" data-sentry-source-file="BCorpLogo.tsx"></path><path d="M33.9023 1.68024V0.206543H35.6914V1.68024H33.9023ZM35.6965 2.68503V9.18269H33.9023V2.68503H35.6965Z" fill="#ffffff" data-sentry-element="path" data-sentry-source-file="BCorpLogo.tsx"></path><path d="M38.5205 7.62548C38.7894 7.88311 39.1772 8.01709 39.6787 8.01709C40.0407 8.01709 40.3509 7.92949 40.6146 7.74914C40.8731 7.56879 41.0334 7.37814 41.0955 7.17718H42.6725C42.4191 7.95525 42.0313 8.5169 41.5143 8.85184C40.992 9.18677 40.3612 9.35681 39.6218 9.35681C39.11 9.35681 38.6446 9.27436 38.2361 9.10947C37.8225 8.94459 37.4761 8.71271 37.1865 8.41385C36.9021 8.11499 36.6798 7.75429 36.5247 7.33177C36.3695 6.91439 36.292 6.45064 36.292 5.95082C36.292 5.46646 36.3747 5.01302 36.5298 4.59564C36.6901 4.16281 36.9176 3.80211 37.2124 3.4981C37.5071 3.19408 37.8587 2.9519 38.2672 2.77671C38.6756 2.60151 39.1255 2.51392 39.6218 2.51392C40.1751 2.51392 40.6611 2.62212 41.0748 2.83339C41.4884 3.04981 41.8245 3.33321 42.0882 3.6939C42.3519 4.0546 42.5432 4.46682 42.6621 4.92542C42.7811 5.38401 42.8224 5.86838 42.7914 6.37335H38.0862C38.1069 6.94531 38.2516 7.36784 38.5205 7.62548ZM40.5474 4.20918C40.3354 3.97731 40.0045 3.85879 39.5701 3.85879C39.2858 3.85879 39.0479 3.90517 38.8566 4.00307C38.6653 4.10097 38.5153 4.21949 38.4016 4.35861C38.2878 4.50289 38.2103 4.65232 38.1637 4.81206C38.1172 4.97179 38.0914 5.11092 38.081 5.23974H40.992C40.9093 4.78629 40.7594 4.44106 40.5474 4.20918Z" fill="#ffffff" data-sentry-element="path" data-sentry-source-file="BCorpLogo.tsx"></path><path d="M48.2223 8.35797C48.0103 8.70836 47.7363 8.966 47.395 9.12058C47.0538 9.27517 46.6711 9.35246 46.242 9.35246C45.7559 9.35246 45.3268 9.25971 44.9545 9.06906C44.5822 8.8784 44.2772 8.62592 44.0393 8.30129C43.8015 7.97667 43.6205 7.60567 43.4964 7.18829C43.3723 6.77092 43.3154 6.33293 43.3154 5.87949C43.3154 5.4415 43.3775 5.02412 43.4964 4.61705C43.6153 4.20998 43.8015 3.85444 44.0393 3.54012C44.2772 3.23096 44.5822 2.97847 44.939 2.79297C45.3009 2.60232 45.7198 2.50957 46.2006 2.50957C46.5884 2.50957 46.9555 2.59201 47.3019 2.7569C47.6535 2.92179 47.9276 3.15882 48.1292 3.47829H48.1551V0.211426H49.9441V9.18757H48.243V8.35797H48.2223ZM48.1448 5.14264C48.093 4.8953 48.0103 4.67889 47.8862 4.48823C47.7621 4.29758 47.607 4.14815 47.4105 4.02964C47.2192 3.91112 46.971 3.85444 46.6815 3.85444C46.3919 3.85444 46.1386 3.91112 45.9369 4.02964C45.7353 4.14815 45.575 4.30273 45.4509 4.49339C45.332 4.68404 45.2441 4.90561 45.1872 5.15294C45.1303 5.40028 45.1044 5.65792 45.1044 5.92586C45.1044 6.17835 45.1355 6.43083 45.1924 6.67817C45.2492 6.93065 45.3475 7.15222 45.4767 7.35318C45.606 7.54899 45.7715 7.70872 45.9679 7.83239C46.1644 7.95606 46.4023 8.01274 46.6815 8.01274C46.9762 8.01274 47.2192 7.95606 47.4209 7.83754C47.6174 7.71903 47.7776 7.56444 47.8966 7.36349C48.0155 7.16768 48.0982 6.94096 48.1499 6.69362C48.2016 6.44114 48.2275 6.1835 48.2275 5.91555C48.2223 5.64761 48.1965 5.38997 48.1448 5.14264Z" fill="#ffffff" data-sentry-element="path" data-sentry-source-file="BCorpLogo.tsx"></path><path d="M4.50357 78.1926C4.41568 77.5639 3.81072 77.0847 3.11786 77.0847C1.86658 77.0847 1.39606 78.1462 1.39606 79.254C1.39606 80.3052 1.86658 81.3667 3.11786 81.3667C3.971 81.3667 4.45187 80.7844 4.55528 79.9497H5.90997C5.7652 81.5264 4.6742 82.5364 3.11786 82.5364C1.15304 82.5364 0 81.073 0 79.254C0 77.3784 1.15304 75.915 3.11786 75.915C4.51392 75.915 5.68247 76.7292 5.8531 78.1926H4.50357Z" fill="#ffffff" data-sentry-element="path" data-sentry-source-file="BCorpLogo.tsx"></path><path d="M8.81861 77.6877C10.2664 77.6877 11.1971 78.641 11.1971 80.1044C11.1971 81.5575 10.2664 82.5107 8.81861 82.5107C7.38119 82.5107 6.44531 81.5523 6.44531 80.1044C6.44531 78.6462 7.38119 77.6877 8.81861 77.6877ZM8.81861 81.5678C9.6821 81.5678 9.93545 80.8309 9.93545 80.1095C9.93545 79.3727 9.67692 78.641 8.81861 78.641C7.96546 78.641 7.70694 79.3779 7.70694 80.1095C7.70694 80.8309 7.96546 81.5678 8.81861 81.5678Z" fill="#ffffff" data-sentry-element="path" data-sentry-source-file="BCorpLogo.tsx"></path><path d="M11.9814 77.8068H13.181V78.657H13.2017C13.4292 78.0799 14.0548 77.6831 14.6701 77.6831C14.758 77.6831 14.8666 77.6986 14.9442 77.7243V78.894C14.8253 78.8682 14.6391 78.8528 14.4892 78.8528C13.5636 78.8528 13.2431 79.5175 13.2431 80.3213V82.3824H11.9814V77.8068Z" fill="#ffffff" data-sentry-element="path" data-sentry-source-file="BCorpLogo.tsx"></path><path d="M15.4339 77.8117H16.6335V78.3939H16.649C16.9489 77.9096 17.4452 77.688 18.014 77.688C19.4566 77.688 20.1029 78.8474 20.1029 80.1459C20.1029 81.3671 19.4307 82.511 18.0864 82.511C17.5383 82.511 17.0109 82.274 16.711 81.8205H16.6903V84.0001H15.4287V77.8117H15.4339ZM18.8413 80.1149C18.8413 79.3884 18.5466 78.6361 17.74 78.6361C16.9127 78.6361 16.649 79.3729 16.649 80.1149C16.649 80.8569 16.9333 81.568 17.7503 81.568C18.5776 81.568 18.8413 80.8569 18.8413 80.1149Z" fill="#ffffff" data-sentry-element="path" data-sentry-source-file="BCorpLogo.tsx"></path><path d="M22.8711 77.6877C24.3188 77.6877 25.2547 78.641 25.2547 80.1044C25.2547 81.5575 24.3188 82.5107 22.8711 82.5107C21.4336 82.5107 20.5029 81.5523 20.5029 80.1044C20.5029 78.6462 21.4336 77.6877 22.8711 77.6877ZM22.8711 81.5678C23.7345 81.5678 23.9931 80.8309 23.9931 80.1095C23.9931 79.3727 23.7345 78.641 22.8711 78.641C22.0179 78.641 21.7594 79.3779 21.7594 80.1095C21.7646 80.8309 22.0231 81.5678 22.8711 81.5678Z" fill="#ffffff" data-sentry-element="path" data-sentry-source-file="BCorpLogo.tsx"></path><path d="M26.0325 77.8068H27.2321V78.657H27.2528C27.4803 78.0799 28.1059 77.6831 28.716 77.6831C28.8039 77.6831 28.9125 77.6986 28.9901 77.7243V78.894C28.8763 78.8682 28.6902 78.8528 28.5351 78.8528C27.6095 78.8528 27.289 79.5175 27.289 80.3213V82.3824H26.0273V77.8068H26.0325Z" fill="#ffffff" data-sentry-element="path" data-sentry-source-file="BCorpLogo.tsx"></path><path d="M29.3623 79.2184C29.4347 78.0384 30.4895 77.688 31.5236 77.688C32.4388 77.688 33.5401 77.8889 33.5401 78.9865V81.3671C33.5401 81.7844 33.5815 82.1967 33.7004 82.3873H32.4181C32.3767 82.243 32.3353 82.0936 32.3302 81.9442C31.932 82.3616 31.3478 82.511 30.7842 82.511C29.9155 82.511 29.2227 82.0782 29.2227 81.1403C29.2227 80.1046 30.0034 79.8573 30.7842 79.7491C31.5598 79.6357 32.2785 79.6615 32.2785 79.1462C32.2785 78.6052 31.901 78.5279 31.4615 78.5279C30.9807 78.5279 30.6704 78.7237 30.6239 79.2184H29.3623ZM32.2733 80.151C32.0561 80.3365 31.6166 80.3468 31.2237 80.419C30.8307 80.4963 30.4791 80.6302 30.4791 81.094C30.4791 81.5629 30.841 81.6762 31.2547 81.6762C32.2371 81.6762 32.2785 80.8982 32.2785 80.6251V80.151H32.2733Z" fill="#ffffff" data-sentry-element="path" data-sentry-source-file="BCorpLogo.tsx"></path><path d="M36.0845 77.8113H37.01V78.6512H36.0845V80.9184C36.0845 81.3461 36.1931 81.4492 36.6171 81.4492C36.7515 81.4492 36.8756 81.4388 37.01 81.4131V82.3973C36.798 82.4333 36.5188 82.4436 36.2706 82.4436C35.5002 82.4436 34.8229 82.2633 34.8229 81.3564V78.6563H34.0576V77.8164H34.8229V76.4458H36.0845V77.8113Z" fill="#ffffff" data-sentry-element="path" data-sentry-source-file="BCorpLogo.tsx"></path><path d="M39.2274 77.1053H37.9658V76.0696H39.2274V77.1053ZM37.9658 77.8112H39.2274V82.3869H37.9658V77.8112Z" fill="#ffffff" data-sentry-element="path" data-sentry-source-file="BCorpLogo.tsx"></path><path d="M42.4375 77.688C43.8852 77.688 44.8211 78.6413 44.8211 80.1046C44.8211 81.5577 43.8852 82.511 42.4375 82.511C41 82.511 40.0693 81.5526 40.0693 80.1046C40.0693 78.6464 41 77.688 42.4375 77.688ZM42.4375 81.568C43.3009 81.568 43.5595 80.8312 43.5595 80.1098C43.5595 79.3729 43.3009 78.6412 42.4375 78.6412C41.5843 78.6412 41.3258 79.3781 41.3258 80.1098C41.3258 80.8312 41.5843 81.568 42.4375 81.568Z" fill="#ffffff" data-sentry-element="path" data-sentry-source-file="BCorpLogo.tsx"></path><path d="M45.6357 77.8116H46.8353V78.4506H46.8612C47.1817 77.9353 47.7298 77.688 48.2676 77.688C49.6067 77.688 49.948 78.4403 49.948 79.5739V82.3873H48.6864V79.8006C48.6864 79.0483 48.464 78.6773 47.8798 78.6773C47.1921 78.6773 46.9025 79.0586 46.9025 79.9913V82.3925H45.6409V77.8116H45.6357Z" fill="#ffffff" data-sentry-element="path" data-sentry-source-file="BCorpLogo.tsx"></path></svg>