<svg
                                            xmlns="http://www.w3.org/2000/svg"
                                            width="25"
                                            height="24"
                                            fill="none"
                                            viewBox="0 0 25 24"
                                        >
                                            <path
                                            fill="#fff"
                                            fillOpacity="0.7"
                                            d="M16.826 6.009h-3a1 1 0 0 0-1 1v3h4a.35.35 0 0 1 .34.46l-.74 2.2a.5.5 0 0 1-.47.34h-3.13l.001 7.5a.5.5 0 0 1-.5.5h-2.5a.5.5 0 0 1-.5-.5v-7.5h-1.5a.5.5 0 0 1-.5-.5v-2a.5.5 0 0 1 .5-.5h1.5v-3a4 4 0 0 1 4-4h3.5a.5.5 0 0 1 .5.5v2a.5.5 0 0 1-.5.5"
                                            ></path>
                                        </svg>