<svg
                                            xmlns="http://www.w3.org/2000/svg"
                                            width="25"
                                            height="24"
                                            fill="none"
                                            viewBox="0 0 25 24"
                                        >
                                            <path
                                            fill="#fff"
                                            fillOpacity="0.7"
                                            fillRule="evenodd"
                                            d="m5.333 3.01 14-.001a2 2 0 0 1 2 2l.001 14a2 2 0 0 1-2 2h-14a2 2 0 0 1-2-2v-14a2 2 0 0 1 2-2m3 15a.5.5 0 0 0 .5-.5v-7a.5.5 0 0 0-.5-.5h-1.5a.5.5 0 0 0-.5.5v7a.5.5 0 0 0 .5.5zm-.75-9a1.5 1.5 0 1 1 0-3 1.5 1.5 0 0 1 0 3m10.25 8.999a.5.5 0 0 0 .5-.5v-4.6a3.1 3.1 0 0 0-2.72-3.14 3 3 0 0 0-2.78 1.34v-.6a.5.5 0 0 0-.5-.5h-1.5a.5.5 0 0 0-.5.5v7a.5.5 0 0 0 .5.5h1.5a.5.5 0 0 0 .5-.5v-3.75a1.5 1.5 0 1 1 3 0v3.75a.5.5 0 0 0 .5.5z"
                                            clipRule="evenodd"
                                            ></path>
                                        </svg>