<svg xmlns="http://www.w3.org/2000/svg" xmlns:xlink="http://www.w3.org/1999/xlink" version="1.1" id="Layer_1" x="0px" y="0px" viewBox="0 0 37.6 24" style="enable-background:new 0 0 37.6 24;" xml:space="preserve">
<style type="text/css">
	.st0{fill-rule:evenodd;clip-rule:evenodd;fill:#323E48;}
	.st1{fill-rule:evenodd;clip-rule:evenodd;fill:#00ADBB;}
</style>
<g>
	<path class="st0" d="M34.3,6.2c-0.5,0-1.1,0.3-1.3,0.8l-2.4,5.6L29.7,7c-0.1-0.5-0.5-0.8-1-0.8h-3.1l2.6,9.2c0,0.2,0.1,0.4,0,0.6   c-0.1,0.8-0.9,1.4-1.6,1.4h-1.7c-0.4,0-0.7,0.3-0.9,0.9l-0.4,2.3h3c1.6,0,3.4-0.8,4.7-3l6.1-11.4H34.3z"/>
	<path class="st0" d="M4.5,3.4c0.9,0,1.3,0.4,1.2,1.3L5.4,6.2h2.1L7,8.8H5L4.4,12c-0.2,1.1,0.9,1.3,1.6,1.3c0.1,0,0.2,0,0.3,0   l-0.5,2.9c-0.2,0-0.3,0-0.7,0c-1.6,0-4.6-0.4-4-3.8l0.6-3.7H0.2l0.5-2.6h1.5l0.5-2.7H4.5z"/>
	<path class="st1" d="M22,6.3l-0.5,3c0.7,0.3,1.1,1,1.1,1.8c0,1-0.8,1.9-1.8,2l-0.5,3c0.1,0,0.2,0,0.3,0c2.8,0,5.1-2.3,5.1-5.1   C25.6,8.9,24.1,6.9,22,6.3"/>
	<path class="st1" d="M19.6,13c-0.7-0.3-1.1-1-1.1-1.8c0-1,0.8-1.9,1.8-2l0.5-3c-0.1,0-0.2,0-0.3,0c-2.8,0-5.1,2.3-5.1,5.1   c0,2.3,1.5,4.2,3.6,4.8L19.6,13z"/>
	<path class="st0" d="M8.7,6.2h1.8c0.9,0,1.3,0.4,1.2,1.3l-0.2,1.1c0.7-1.4,2.1-2.5,3.6-2.5c0.2,0,0.4,0,0.4,0l-0.6,3.3   c0,0-0.3-0.1-0.7-0.1c-0.8,0-2.1,0.3-2.9,1.7c-0.2,0.4-0.3,0.8-0.4,1.3l-0.6,3.7H7L8.7,6.2z"/>
	<path class="st0" d="M36.6,16.3c0-0.1,0-0.1-0.1-0.1c0,0-0.1-0.1-0.2-0.1h-0.2v0.4h0.2c0.1,0,0.1,0,0.2-0.1   C36.5,16.5,36.6,16.4,36.6,16.3 M36.8,17.2h-0.2l-0.3-0.5h-0.2v0.5H36V16h0.4c0.1,0,0.2,0,0.3,0.1c0.1,0.1,0.1,0.2,0.1,0.2   c0,0.2-0.1,0.3-0.3,0.3L36.8,17.2z M37.2,16.6c0,0.3-0.1,0.5-0.3,0.6c-0.2,0.2-0.4,0.3-0.6,0.3c-0.2,0-0.5-0.1-0.6-0.3   c-0.2-0.2-0.3-0.4-0.3-0.6c0-0.3,0.1-0.5,0.3-0.6c0.2-0.2,0.4-0.3,0.6-0.3c0.2,0,0.5,0.1,0.6,0.3C37.1,16.1,37.2,16.3,37.2,16.6    M37.4,16.6c0,0.3-0.1,0.5-0.3,0.8c-0.2,0.2-0.5,0.3-0.8,0.3c-0.3,0-0.5-0.1-0.8-0.3c-0.2-0.2-0.3-0.5-0.3-0.8   c0-0.3,0.1-0.5,0.3-0.8c0.2-0.2,0.5-0.3,0.8-0.3c0.3,0,0.5,0.1,0.8,0.3C37.3,16,37.4,16.3,37.4,16.6"/>
</g>
</svg>